<?xml version="1.0" ?><svg style="enable-background:new 0 0 100 100;" version="1.1" viewBox="0 0 100 100" xml:space="preserve" xmlns="http://www.w3.org/2000/svg" xmlns:xlink="http://www.w3.org/1999/xlink"><g id="backpack"><g><path d="M50,39c2.8,0,5-2.2,5-5s-2.2-5-5-5s-5,2.2-5,5S47.2,39,50,39z M50,31c1.7,0,3,1.3,3,3s-1.3,3-3,3s-3-1.3-3-3    S48.3,31,50,31z"/><path d="M72,53H28c-3.3,0-6,2.7-6,6v7c0,12.7,10.3,23,23,23h10c12.7,0,23-10.3,23-23v-7C78,55.7,75.3,53,72,53z M76,66    c0,11.6-9.4,21-21,21H45c-11.6,0-21-9.4-21-21v-7c0-2.2,1.8-4,4-4h44c2.2,0,4,1.8,4,4V66z"/><path d="M70,60h-2.1h-1.8H30c-0.6,0-1,0.4-1,1s0.4,1,1,1h34.8l-0.7,2.9c-0.3,1,0,2.2,0.6,3c0.6,0.7,1.4,1.1,2.3,1.1    s1.7-0.4,2.3-1.1c0.6-0.8,0.9-1.9,0.6-3L69.2,62H70c0.6,0,1-0.4,1-1S70.6,60,70,60z M68,65.4c0.1,0.4,0,0.9-0.2,1.3    C67.6,66.8,67.4,67,67,67s-0.6-0.2-0.7-0.4c-0.3-0.3-0.4-0.8-0.2-1.3l0.8-3.4h0.2L68,65.4z"/><path d="M96,68.1c0-13.2-8.8-25.2-9.2-25.7C86.6,42.1,86.3,42,86,42h-7.7l-7.9-20.2c-0.9-2.3-3.1-3.8-5.6-3.8H62v-2    c0-6.6-5.4-12-12-12S38,9.4,38,16v2h-2.8c-2.5,0-4.7,1.5-5.6,3.8L21.7,42H14c-0.3,0-0.6,0.1-0.8,0.4C12.8,42.9,4,54.9,4,68.1    C4,79.8,15.8,80.9,17.7,81c5.2,9.1,15.1,15,26,15h12.5c11,0,20.9-5.9,26.1-15C84.2,80.9,96,79.8,96,68.1z M85.5,44    c0.5,0.6,1.4,2.1,2.5,4h-7.3l-1.6-4H85.5z M40,16c0-5.5,4.5-10,10-10s10,4.5,10,10v2h-3v-2c0-3.9-3.1-7-7-7s-7,3.1-7,7v2h-3V16z     M45,18v-2c0-2.8,2.2-5,5-5s5,2.2,5,5v2H45z M64.8,20c0.4,0,0.8,0.1,1.2,0.2L65.4,27C64.6,35,58,41,50,41s-14.6-6-15.4-14L34,20.2    c0.4-0.1,0.8-0.2,1.2-0.2H64.8z M14.5,44h6.4l-1.6,4H12C13.1,46.1,14.1,44.6,14.5,44z M6,68.1c0-6.8,2.6-13.4,5-18.1c0,0,0,0,0,0    h7.5L16,56.6c-2.2,5.7-2.6,12-1,17.9c0.4,1.5,1,3,1.6,4.5C13.5,78.5,6,76.7,6,68.1z M56.2,94H43.8c-12.6,0-23.6-8.3-26.8-20.1    c-1.5-5.5-1.2-11.4,0.9-16.6l13.6-34.7c0.2-0.4,0.4-0.8,0.7-1.1l0.5,5.7C33.5,36.2,40.9,43,50,43s16.5-6.8,17.4-15.8l0.5-5.7    c0.3,0.3,0.5,0.7,0.7,1.1l13.6,34.7c2.1,5.3,2.4,11.2,0.9,16.6C79.8,85.7,68.8,94,56.2,94z M83.4,78.9c0.7-1.4,1.2-2.9,1.6-4.5    c1.6-5.9,1.3-12.2-1-17.9L81.5,50H89c0,0,0,0,0,0c2.4,4.6,5,11.2,5,18.1C94,76.7,86.5,78.5,83.4,78.9z"/></g></g><g id="camping"/><g id="transportation"/><g id="navigation"/><g id="hotel"/><g id="money"/><g id="signpost"/><g id="ticket"/><g id="schedule"/><g id="beach"/><g id="mountain"/><g id="location"/><g id="traveling"/><g id="bonfire"/><g id="camera"/><g id="medicine"/><g id="drink"/><g id="canned_food"/><g id="nature"/><g id="map"/></svg>